<svg xmlns="http://www.w3.org/2000/svg" xmlns:xlink="http://www.w3.org/1999/xlink" version="1.1" x="0px" y="0px" viewBox="0 0 100 125" enable-background="new 0 0 100 100" xml:space="preserve"><circle cx="45.17" cy="14.353" r="7.831"/><g><circle cx="39.143" cy="34.934" r="0.251"/><path d="M49.796,24.761c0.551,1.232,1.429,3.933,0.91,7.77c0.889,0.337,1.524,1.19,1.524,2.195c0,1.299-1.056,2.354-2.354,2.354   c-1.299,0-2.355-1.056-2.355-2.354c0-1.232,0.956-2.235,2.163-2.335c0.659-4.891-1.128-7.801-1.147-7.831   c-0.036-0.058-0.058-0.119-0.069-0.182c-1.009-0.453-2.12-0.72-3.298-0.72c-1.268,0-2.463,0.299-3.532,0.818   c-0.001,0-0.002,0-0.002,0v6.581c0.622,0.093,1.126,0.351,1.492,0.787c0.677,0.806,0.656,1.938,0.611,2.416   c0.167,0.177,0.273,0.412,0.273,0.673c0,0.545-0.442,0.988-0.988,0.988c-0.544,0-0.988-0.443-0.988-0.988   c0-0.438,0.292-0.798,0.686-0.928c0.019-0.389-0.012-1.058-0.386-1.501c-0.262-0.31-0.659-0.459-1.216-0.459   c-0.562,0-0.968,0.154-1.241,0.47c-0.378,0.441-0.43,1.103-0.424,1.493c0.391,0.132,0.677,0.491,0.677,0.925   c0,0.545-0.443,0.988-0.988,0.988c-0.544,0-0.989-0.443-0.989-0.988c0-0.265,0.108-0.502,0.278-0.68   c-0.033-0.473-0.029-1.606,0.665-2.411c0.374-0.435,0.884-0.693,1.507-0.785V24.74c-3.851,1.113-9.529,4.389-9.529,10.887v16.03   c0,1.424,1.155,2.579,2.579,2.579c1.425,0,2.581-1.155,2.581-2.579v-16.03c0-1.072,0.33-1.961,0.829-2.709v19.139   c0,0.012-0.004,0.023-0.004,0.036v37.956c0,1.832,1.485,3.316,3.317,3.316c1.831,0,3.316-1.485,3.316-3.316V61.097   c0.479,0.088,0.972,0.141,1.478,0.141c0.496,0,0.979-0.051,1.45-0.136V89.83c0,1.832,1.485,3.317,3.316,3.317   c1.833,0,3.317-1.485,3.317-3.317V53.616c0.009-0.161,0.024-0.321,0.024-0.484V32.932c0.494,0.745,0.82,1.629,0.82,2.695v16.03   c0,1.424,1.155,2.579,2.579,2.579c1.424,0,2.58-1.155,2.58-2.579v-16.03C59.256,29.167,53.645,25.893,49.796,24.761z"/><circle cx="43.023" cy="34.933" r="0.252"/><path d="M48.554,34.726c0,0.729,0.593,1.322,1.323,1.322c0.729,0,1.322-0.593,1.322-1.322c0-0.729-0.593-1.322-1.322-1.322   C49.147,33.403,48.554,33.996,48.554,34.726z M49.894,33.761c0.542,0,0.982,0.44,0.982,0.982c0,0.542-0.44,0.982-0.982,0.982   c-0.542,0-0.982-0.44-0.982-0.982C48.912,34.202,49.352,33.761,49.894,33.761z"/><circle cx="49.894" cy="34.743" r="0.492"/></g><g><polygon points="58.681,59.036 57.615,59.036 57.615,60.401 56.25,60.401 56.25,61.467 57.615,61.467 57.615,62.832 58.681,62.832    58.681,61.467 60.046,61.467 60.046,60.401 58.681,60.401  "/><path d="M67.334,54.758h-5.374v-0.616c0-1.257-1.023-2.279-2.279-2.279h-3.889c-1.257,0-2.279,1.022-2.279,2.279v0.616h-4.693   c-0.852,0-1.541,0.689-1.541,1.542v9.765c0,0.851,0.689,1.541,1.541,1.541h18.514c0.851,0,1.542-0.69,1.542-1.541V56.3   C68.876,55.448,68.185,54.758,67.334,54.758z M54.989,54.143c0-0.444,0.361-0.805,0.804-0.805h3.889   c0.444,0,0.805,0.361,0.805,0.805v0.616h-5.498V54.143z M58.078,64.208c-1.784,0-3.23-1.446-3.23-3.23   c0-1.785,1.446-3.231,3.23-3.231c1.785,0,3.23,1.446,3.23,3.231C61.308,62.761,59.862,64.208,58.078,64.208z"/></g><text x="0" y="115" fill="#000000" font-size="5px" font-weight="bold" font-family="'Helvetica Neue', Helvetica, Arial-Unicode, Arial, Sans-serif">Created by IconTrack</text><text x="0" y="120" fill="#000000" font-size="5px" font-weight="bold" font-family="'Helvetica Neue', Helvetica, Arial-Unicode, Arial, Sans-serif">from the Noun Project</text></svg>