<svg xmlns="http://www.w3.org/2000/svg" xmlns:xlink="http://www.w3.org/1999/xlink" version="1.1" x="0px" y="0px" viewBox="0 0 100 125" style="enable-background:new 0 0 100 100;" xml:space="preserve"><g><path d="M93.461,2.372c-1.044-0.961-3.121-1.278-4.466,0.181L68.799,24.458c-1.217,0.004-2.389,0.389-3.388,1.114   c-0.01,0.007-9.958,7.423-9.958,7.423l-3.096-3.858c-5.082-7.111-11.187-5.583-12.366-5.818c3.685-2.184,6.16-6.203,6.16-10.788   C46.151,5.622,40.53,0,33.62,0S21.088,5.622,21.088,12.531c0,4.585,2.476,8.604,6.16,10.788c-1.315,0.262-7.218-1.384-12.367,5.819   L6.499,39.593c-1.045,1.556-1.273,3.641-0.577,5.382L14.224,61.1c1.598,3.832,5.48,3.662,6.973,3.193v29.124   c0,3.63,2.972,6.583,6.625,6.583c2.491,0,4.665-1.372,5.797-3.396c1.131,2.024,3.306,3.396,5.797,3.396   c3.654,0,6.626-2.953,6.626-6.583V39.68l3.841,4.688c2.253,3.047,5.935,2.803,8.095,1.235l14.27-10.638   c2.242-1.63,2.959-4.618,1.918-7.004L93.642,6.837C94.822,5.557,94.742,3.553,93.461,2.372z M23.581,12.531   c0-5.534,4.503-10.038,10.039-10.038s10.038,4.503,10.038,10.038c0,5.535-4.503,10.038-10.038,10.038S23.581,18.066,23.581,12.531z    M35.402,44.803l0.346,2.417c-0.513,0.002-0.893,0.387-0.893,0.867c0,0.481,0.389,0.87,0.869,0.87c0.093,0,0.182-0.019,0.266-0.046   l0.387,2.708c-0.159-0.183-0.391-0.301-0.653-0.301c-0.48,0-0.869,0.39-0.869,0.87c0,0.479,0.436,0.899,0.9,0.866l-1.27,1.479   c0.034-0.093,0.056-0.192,0.056-0.297c0-0.48-0.389-0.869-0.869-0.869s-0.87,0.389-0.87,0.869s0.389,0.869,0.87,0.869   c0.152,0,0.293-0.042,0.417-0.111l-0.47,0.548l-2.146-2.5c0.601,0.089,1.028-0.374,1.028-0.854c0-0.48-0.39-0.87-0.87-0.87   c-0.361,0-0.67,0.221-0.802,0.533l0.427-2.983c0.114,0.055,0.24,0.088,0.375,0.088c0.48,0,0.87-0.389,0.87-0.87   c0-0.48-0.445-0.956-1.011-0.855l0.342-2.392c0.383-0.091,0.669-0.433,0.669-0.844c0-0.324-0.179-0.603-0.441-0.752l0.754-5.276   c0.119,0.839,1.274,1.045,1.645,0.241l0.73,5.106c-0.202,0.16-0.334,0.404-0.334,0.681C34.855,44.363,35.082,44.675,35.402,44.803z    M33.939,34.574l0.387,2.706c-0.43-0.497-1.186-0.352-1.442,0.204l0.421-2.947C33.55,34.651,33.737,34.64,33.939,34.574z    M33.54,32.895l0.08-0.555l0.078,0.544C33.689,32.884,33.583,32.888,33.54,32.895z M33.62,28.829l-2.16-3.017h4.32L33.62,28.829z    M21.197,49.772l-3.142-6.262l3.142-3.833V49.772z M43.549,63.684c-0.297,0.139-0.505,0.438-0.505,0.787s0.208,0.649,0.505,0.787   v2.521c-0.297,0.139-0.505,0.438-0.505,0.787s0.208,0.649,0.505,0.787v2.517c-0.297,0.139-0.505,0.438-0.505,0.787   c0,0.35,0.208,0.649,0.505,0.787v2.511c-0.297,0.138-0.505,0.438-0.505,0.786c0,0.351,0.208,0.649,0.505,0.788v2.521   c-0.297,0.138-0.505,0.438-0.505,0.787s0.208,0.648,0.505,0.787v2.517c-0.297,0.138-0.505,0.437-0.505,0.786   c0,0.351,0.208,0.649,0.505,0.787v2.528c-0.297,0.139-0.505,0.438-0.505,0.787c0,0.351,0.208,0.649,0.505,0.787v2.522   c-0.297,0.138-0.505,0.438-0.505,0.787c0,0.336,0.194,0.625,0.474,0.77c-0.191,1.607-1.326,2.932-2.841,3.414   c0.035-0.549-0.38-0.963-0.86-0.963s-0.87,0.39-0.87,0.869c0,0.094,0.019,0.184,0.046,0.269c-1.924-0.194-3.459-1.7-3.681-3.597   c0.123,0.066,0.261,0.107,0.411,0.107c0.481,0,0.869-0.39,0.869-0.869c0-0.48-0.388-0.87-0.869-0.87   c-0.162,0-0.311,0.047-0.44,0.124v-2.604c0.13,0.077,0.279,0.124,0.44,0.124c0.481,0,0.869-0.39,0.869-0.87   c0-0.479-0.388-0.869-0.869-0.869c-0.162,0-0.311,0.047-0.44,0.124v-2.611c0.13,0.077,0.279,0.124,0.44,0.124   c0.481,0,0.869-0.39,0.869-0.87c0-0.479-0.388-0.869-0.869-0.869c-0.162,0-0.311,0.047-0.44,0.124v-2.6   c0.13,0.077,0.279,0.124,0.44,0.124c0.481,0,0.869-0.39,0.869-0.869c0-0.48-0.388-0.869-0.869-0.869   c-0.162,0-0.311,0.047-0.44,0.123v-2.604c0.13,0.077,0.279,0.124,0.44,0.124c0.481,0,0.869-0.39,0.869-0.87   c0-0.479-0.388-0.869-0.869-0.869c-0.162,0-0.311,0.047-0.44,0.124v-2.593c0.13,0.077,0.279,0.124,0.44,0.124   c0.481,0,0.869-0.39,0.869-0.87c0-0.479-0.388-0.869-0.869-0.869c-0.162,0-0.311,0.047-0.44,0.124v-2.6   c0.13,0.076,0.279,0.124,0.44,0.124c0.481,0,0.869-0.39,0.869-0.87c0-0.479-0.388-0.869-0.869-0.869   c-0.162,0-0.311,0.047-0.44,0.124v-2.604c0.13,0.077,0.279,0.124,0.44,0.124c0.481,0,0.869-0.39,0.869-0.87   s-0.388-0.869-0.869-0.869c-0.445,0-0.808,0.336-0.859,0.768h-2.374c-0.051-0.432-0.415-0.768-0.86-0.768   c-0.48,0-0.87,0.389-0.87,0.869s0.39,0.87,0.87,0.87c0.115,0,0.224-0.023,0.324-0.064v2.485c-0.1-0.041-0.209-0.064-0.324-0.064   c-0.48,0-0.87,0.39-0.87,0.869c0,0.48,0.39,0.87,0.87,0.87c0.115,0,0.224-0.024,0.324-0.063v2.479   c-0.1-0.04-0.209-0.063-0.324-0.063c-0.48,0-0.87,0.39-0.87,0.869c0,0.48,0.39,0.87,0.87,0.87c0.115,0,0.224-0.023,0.324-0.064   v2.473c-0.1-0.04-0.209-0.063-0.324-0.063c-0.48,0-0.87,0.39-0.87,0.869c0,0.48,0.39,0.87,0.87,0.87   c0.115,0,0.224-0.023,0.324-0.063v2.484c-0.1-0.04-0.209-0.063-0.324-0.063c-0.48,0-0.87,0.389-0.87,0.869   c0,0.479,0.39,0.869,0.87,0.869c0.115,0,0.224-0.023,0.324-0.063v2.479c-0.1-0.041-0.209-0.064-0.324-0.064   c-0.48,0-0.87,0.39-0.87,0.869c0,0.48,0.39,0.87,0.87,0.87c0.115,0,0.224-0.023,0.324-0.063v2.49   c-0.1-0.04-0.209-0.063-0.324-0.063c-0.48,0-0.87,0.39-0.87,0.869c0,0.48,0.39,0.87,0.87,0.87c0.115,0,0.224-0.023,0.324-0.064   v2.484c-0.1-0.04-0.209-0.063-0.324-0.063c-0.48,0-0.87,0.39-0.87,0.87c0,0.479,0.39,0.869,0.87,0.869   c0.101,0,0.196-0.021,0.286-0.052c-0.24,1.83-1.705,3.282-3.553,3.522c0.024-0.079,0.041-0.162,0.041-0.25   c0-0.479-0.389-0.869-0.869-0.869c-0.481,0-0.923,0.4-0.856,0.996c-1.558-0.445-2.738-1.773-2.951-3.4   c0.337-0.12,0.581-0.438,0.581-0.816c0-0.393-0.261-0.721-0.619-0.829v-2.438c0.357-0.108,0.619-0.437,0.619-0.829   c0-0.392-0.261-0.72-0.619-0.828v-2.445c0.357-0.108,0.619-0.437,0.619-0.829c0-0.392-0.261-0.72-0.619-0.828v-2.434   c0.357-0.108,0.619-0.437,0.619-0.828c0-0.393-0.261-0.721-0.619-0.828V77.57c0.357-0.108,0.619-0.437,0.619-0.829   c0-0.392-0.261-0.72-0.619-0.828v-2.427c0.357-0.108,0.619-0.437,0.619-0.829c0-0.392-0.261-0.72-0.619-0.828v-2.434   c0.357-0.108,0.619-0.437,0.619-0.829c0-0.392-0.261-0.72-0.619-0.828v-2.439c0.357-0.107,0.619-0.436,0.619-0.828   s-0.261-0.72-0.619-0.828v-2.439c0.357-0.107,0.748-0.508,0.561-1.133h2.472c-0.035,0.096-0.058,0.197-0.058,0.305   c0,0.479,0.389,0.869,0.87,0.869c0.48,0,0.869-0.39,0.869-0.869c0-0.107-0.022-0.209-0.058-0.305h2.472   c-0.036,0.096-0.058,0.197-0.058,0.305c0,0.479,0.39,0.869,0.87,0.869c0.48,0,0.87-0.39,0.87-0.869   c0-0.107-0.022-0.209-0.058-0.305h2.469c-0.036,0.096-0.058,0.197-0.058,0.305c0,0.479,0.389,0.869,0.869,0.869   c0.481,0,0.869-0.39,0.869-0.869c0-0.107-0.022-0.209-0.058-0.305h2.47c-0.036,0.096-0.058,0.197-0.058,0.305   c0,0.479,0.39,0.869,0.87,0.869s0.869-0.39,0.869-0.869c0-0.107-0.022-0.209-0.058-0.305h2.473c-0.156,0.61,0.15,0.953,0.447,1.092   V63.684z M70.771,32.957L56.5,43.595c-1.074,0.781-3.307,1.089-4.631-0.735l-8.32-10.159v25.834H23.69V32.702l-8.59,10.479   l6.062,12.082v6.342c-1.571,1.021-3.848,0.51-4.657-1.513L8.201,43.96c-0.371-0.958-0.256-2.034,0.309-2.893l8.347-10.407   l0.027-0.036c2.302-3.237,5.104-4.812,8.568-4.812h4.12l2.859,3.994l-3.274,22.895l4.463,5.198l4.464-5.198l-3.274-22.895   l2.86-3.994h4.12c3.463,0,6.266,1.574,8.568,4.812l4.658,5.809l11.87-8.849c0.209-0.151,0.431-0.276,0.663-0.375   c-0.688,0.586-1.349,2.164-0.08,3.333c0.893,0.823,2.289,0.767,3.109-0.123l1.32-1.419C72.46,30.357,72.038,32.037,70.771,32.957z    M91.809,5.147L69.449,29.376c-0.609,0.662-1.591-0.241-0.983-0.9L90.828,4.243C91.451,3.569,92.413,4.49,91.809,5.147z    M34.541,26.88c0,0.479-0.389,0.87-0.869,0.87s-0.87-0.39-0.87-0.87c0-0.48,0.389-0.869,0.87-0.869S34.541,26.399,34.541,26.88z    M34.541,41.949c0,0.481-0.389,0.87-0.869,0.87s-0.87-0.389-0.87-0.87c0-0.48,0.389-0.869,0.87-0.869S34.541,41.469,34.541,41.949z    M34.541,46.04c0,0.479-0.389,0.869-0.869,0.869s-0.87-0.39-0.87-0.869c0-0.48,0.389-0.87,0.87-0.87S34.541,45.56,34.541,46.04z    M34.541,50.136c0,0.001,0,0.002,0,0.002s0,0.001,0,0.002c0,0.48-0.389,0.87-0.869,0.87s-0.87-0.389-0.87-0.87c0,0,0-0.001,0-0.002   s0-0.001,0-0.002c0-0.48,0.389-0.869,0.87-0.869S34.541,49.655,34.541,50.136z M26.353,62.423c0,0.48-0.389,0.87-0.869,0.87   c-0.48,0-0.87-0.39-0.87-0.87c0-0.479,0.389-0.869,0.87-0.869C25.963,61.554,26.353,61.943,26.353,62.423z M30.453,62.423   c0,0.48-0.389,0.87-0.869,0.87c-0.481,0-0.869-0.39-0.869-0.87c0-0.479,0.388-0.869,0.869-0.869   C30.063,61.554,30.453,61.943,30.453,62.423z M34.541,62.423c0,0.48-0.389,0.87-0.869,0.87s-0.87-0.39-0.87-0.87   c0-0.479,0.389-0.869,0.87-0.869S34.541,61.943,34.541,62.423z M38.637,62.423c0,0.48-0.389,0.87-0.869,0.87   s-0.869-0.39-0.869-0.87c0-0.479,0.389-0.869,0.869-0.869S38.637,61.943,38.637,62.423z M42.734,62.423   c0,0.48-0.389,0.87-0.869,0.87s-0.869-0.39-0.869-0.87c0-0.479,0.389-0.869,0.869-0.869S42.734,61.943,42.734,62.423z    M26.353,74.693c0,0.48-0.389,0.87-0.869,0.87c-0.48,0-0.87-0.39-0.87-0.87s0.389-0.869,0.87-0.869   C25.963,73.824,26.353,74.213,26.353,74.693z M26.353,78.789c0,0.48-0.389,0.87-0.869,0.87c-0.48,0-0.87-0.39-0.87-0.87   c0-0.479,0.389-0.869,0.87-0.869C25.963,77.92,26.353,78.31,26.353,78.789z M30.453,74.693c0,0.48-0.389,0.87-0.869,0.87   c-0.481,0-0.869-0.39-0.869-0.87s0.388-0.869,0.869-0.869C30.063,73.824,30.453,74.213,30.453,74.693z M38.637,74.693   c0,0.48-0.389,0.87-0.869,0.87s-0.869-0.39-0.869-0.87s0.389-0.869,0.869-0.869S38.637,74.213,38.637,74.693z M38.637,78.789   c0,0.48-0.389,0.87-0.869,0.87s-0.869-0.39-0.869-0.87c0-0.479,0.389-0.869,0.869-0.869S38.637,78.31,38.637,78.789z    M30.453,78.789c0,0.48-0.389,0.87-0.869,0.87c-0.481,0-0.869-0.39-0.869-0.87c0-0.479,0.388-0.869,0.869-0.869   C30.063,77.92,30.453,78.31,30.453,78.789z M28.405,76.741c0,0.48-0.389,0.87-0.869,0.87c-0.481,0-0.87-0.39-0.87-0.87   c0-0.479,0.389-0.869,0.87-0.869C28.016,75.872,28.405,76.262,28.405,76.741z M28.405,80.838c0,0.479-0.389,0.869-0.869,0.869   c-0.481,0-0.87-0.39-0.87-0.869c0-0.48,0.389-0.869,0.87-0.869C28.016,79.969,28.405,80.357,28.405,80.838z M42.734,74.693   c0,0.48-0.389,0.87-0.869,0.87s-0.869-0.39-0.869-0.87s0.389-0.869,0.869-0.869S42.734,74.213,42.734,74.693z M42.734,78.789   c0,0.48-0.389,0.87-0.869,0.87s-0.869-0.39-0.869-0.87c0-0.479,0.389-0.869,0.869-0.869S42.734,78.31,42.734,78.789z    M40.687,76.741c0,0.48-0.389,0.87-0.869,0.87s-0.87-0.39-0.87-0.87c0-0.479,0.39-0.869,0.87-0.869S40.687,76.262,40.687,76.741z    M40.687,80.838c0,0.479-0.389,0.869-0.869,0.869s-0.87-0.39-0.87-0.869c0-0.48,0.39-0.869,0.87-0.869S40.687,80.357,40.687,80.838   z M26.353,82.881c0,0.479-0.389,0.869-0.869,0.869c-0.48,0-0.87-0.39-0.87-0.869c0-0.48,0.389-0.87,0.87-0.87   C25.963,82.011,26.353,82.4,26.353,82.881z M38.637,82.881c0,0.479-0.389,0.869-0.869,0.869s-0.869-0.39-0.869-0.869   c0-0.48,0.389-0.87,0.869-0.87S38.637,82.4,38.637,82.881z M30.453,82.881c0,0.479-0.389,0.869-0.869,0.869   c-0.481,0-0.869-0.39-0.869-0.869c0-0.48,0.388-0.87,0.869-0.87C30.063,82.011,30.453,82.4,30.453,82.881z M28.405,84.928   c0,0.48-0.389,0.87-0.869,0.87c-0.481,0-0.87-0.39-0.87-0.87c0-0.479,0.389-0.869,0.87-0.869   C28.016,84.059,28.405,84.448,28.405,84.928z M42.734,82.881c0,0.479-0.389,0.869-0.869,0.869s-0.869-0.39-0.869-0.869   c0-0.48,0.389-0.87,0.869-0.87S42.734,82.4,42.734,82.881z M40.687,84.928c0,0.48-0.389,0.87-0.869,0.87s-0.87-0.39-0.87-0.87   c0-0.479,0.39-0.869,0.87-0.869S40.687,84.448,40.687,84.928z M26.353,86.977c0,0.479-0.389,0.869-0.869,0.869   c-0.48,0-0.87-0.39-0.87-0.869c0-0.48,0.389-0.869,0.87-0.869C25.963,86.107,26.353,86.496,26.353,86.977z M30.453,86.977   c0,0.48-0.389,0.869-0.869,0.869c-0.481,0-0.869-0.389-0.869-0.869s0.388-0.869,0.869-0.869   C30.063,86.107,30.453,86.496,30.453,86.977z M38.637,86.977c0,0.479-0.389,0.869-0.869,0.869s-0.869-0.39-0.869-0.869   c0-0.48,0.389-0.869,0.869-0.869S38.637,86.496,38.637,86.977z M42.734,86.977c0,0.48-0.389,0.869-0.869,0.869   s-0.869-0.389-0.869-0.869s0.389-0.869,0.869-0.869S42.734,86.496,42.734,86.977z M26.353,91.078c0,0.48-0.389,0.87-0.869,0.87   c-0.48,0-0.87-0.39-0.87-0.87c0-0.479,0.389-0.869,0.87-0.869C25.963,90.209,26.353,90.599,26.353,91.078z M38.637,91.078   c0,0.48-0.389,0.87-0.869,0.87s-0.869-0.39-0.869-0.87c0-0.479,0.389-0.869,0.869-0.869S38.637,90.599,38.637,91.078z    M30.453,91.078c0,0.48-0.389,0.87-0.869,0.87c-0.481,0-0.869-0.39-0.869-0.87c0-0.479,0.388-0.869,0.869-0.869   C30.063,90.209,30.453,90.599,30.453,91.078z M28.405,89.03c0,0.48-0.389,0.87-0.869,0.87c-0.481,0-0.87-0.39-0.87-0.87   c0-0.479,0.389-0.869,0.87-0.869C28.016,88.161,28.405,88.551,28.405,89.03z M28.405,93.127c0,0.479-0.389,0.869-0.869,0.869   c-0.481,0-0.87-0.39-0.87-0.869c0-0.48,0.389-0.87,0.87-0.87C28.016,92.257,28.405,92.646,28.405,93.127z M42.734,91.078   c0,0.48-0.389,0.87-0.869,0.87s-0.869-0.39-0.869-0.87c0-0.479,0.389-0.869,0.869-0.869S42.734,90.599,42.734,91.078z    M40.687,89.03c0,0.48-0.389,0.87-0.869,0.87s-0.87-0.39-0.87-0.87c0-0.479,0.39-0.869,0.87-0.869S40.687,88.551,40.687,89.03z    M40.687,93.127c0,0.479-0.389,0.869-0.869,0.869s-0.87-0.39-0.87-0.869c0-0.48,0.39-0.87,0.87-0.87S40.687,92.646,40.687,93.127z    M26.353,95.17c0,0.479-0.389,0.869-0.869,0.869c-0.48,0-0.87-0.39-0.87-0.869c0-0.48,0.389-0.87,0.87-0.87   C25.963,94.3,26.353,94.689,26.353,95.17z M38.637,95.17c0,0.479-0.389,0.869-0.869,0.869s-0.869-0.39-0.869-0.869   c0-0.48,0.389-0.87,0.869-0.87S38.637,94.689,38.637,95.17z M30.453,95.169C30.453,95.169,30.453,95.169,30.453,95.169   c0,0.48-0.389,0.87-0.869,0.87c-0.481,0-0.869-0.39-0.869-0.869c0-0.001,0-0.001,0-0.001c0-0.479,0.388-0.869,0.869-0.869   C30.063,94.3,30.453,94.689,30.453,95.169z M42.734,95.169C42.734,95.169,42.734,95.169,42.734,95.169   c0,0.48-0.389,0.87-0.869,0.87s-0.869-0.39-0.869-0.869c0-0.001,0-0.001,0-0.001c0-0.479,0.389-0.869,0.869-0.869   S42.734,94.689,42.734,95.169z M26.353,66.519c0,0.48-0.389,0.87-0.869,0.87c-0.48,0-0.87-0.39-0.87-0.87   c0-0.479,0.389-0.869,0.87-0.869C25.963,65.649,26.353,66.039,26.353,66.519z M38.637,66.519c0,0.48-0.389,0.87-0.869,0.87   s-0.869-0.39-0.869-0.87c0-0.479,0.389-0.869,0.869-0.869S38.637,66.039,38.637,66.519z M30.453,66.519   c0,0.48-0.389,0.87-0.869,0.87c-0.481,0-0.869-0.39-0.869-0.87c0-0.479,0.388-0.869,0.869-0.869   C30.063,65.649,30.453,66.039,30.453,66.519z M28.405,64.471c0,0.48-0.389,0.87-0.869,0.87c-0.481,0-0.87-0.39-0.87-0.87   s0.389-0.869,0.87-0.869C28.016,63.602,28.405,63.99,28.405,64.471z M28.405,68.566c0,0.48-0.389,0.87-0.869,0.87   c-0.481,0-0.87-0.39-0.87-0.87c0-0.479,0.389-0.869,0.87-0.869C28.016,67.697,28.405,68.087,28.405,68.566z M42.734,66.519   c0,0.48-0.389,0.87-0.869,0.87s-0.869-0.39-0.869-0.87c0-0.479,0.389-0.869,0.869-0.869S42.734,66.039,42.734,66.519z    M40.687,64.471c0,0.48-0.389,0.87-0.869,0.87s-0.87-0.39-0.87-0.87s0.39-0.869,0.87-0.869S40.687,63.99,40.687,64.471z    M40.687,68.566c0,0.48-0.389,0.87-0.869,0.87s-0.87-0.39-0.87-0.87c0-0.479,0.39-0.869,0.87-0.869S40.687,68.087,40.687,68.566z    M26.353,70.609c0,0.48-0.389,0.869-0.869,0.869c-0.48,0-0.87-0.389-0.87-0.869s0.389-0.869,0.87-0.869   C25.963,69.74,26.353,70.129,26.353,70.609z M38.637,70.609c0,0.48-0.389,0.869-0.869,0.869s-0.869-0.389-0.869-0.869   s0.389-0.869,0.869-0.869S38.637,70.129,38.637,70.609z M30.453,70.609c0,0.48-0.389,0.869-0.869,0.869   c-0.481,0-0.869-0.389-0.869-0.869s0.388-0.869,0.869-0.869C30.063,69.74,30.453,70.129,30.453,70.609z M28.405,72.657   c0,0.48-0.389,0.87-0.869,0.87c-0.481,0-0.87-0.39-0.87-0.87c0-0.479,0.389-0.869,0.87-0.869   C28.016,71.788,28.405,72.178,28.405,72.657z M42.734,70.609c0,0.48-0.389,0.869-0.869,0.869s-0.869-0.389-0.869-0.869   s0.389-0.869,0.869-0.869S42.734,70.129,42.734,70.609z M40.687,72.657c0,0.48-0.389,0.87-0.869,0.87s-0.87-0.39-0.87-0.87   c0-0.479,0.39-0.869,0.87-0.869S40.687,72.178,40.687,72.657z"/></g><text x="0" y="115" fill="#000000" font-size="5px" font-weight="bold" font-family="'Helvetica Neue', Helvetica, Arial-Unicode, Arial, Sans-serif">Created by b farias</text><text x="0" y="120" fill="#000000" font-size="5px" font-weight="bold" font-family="'Helvetica Neue', Helvetica, Arial-Unicode, Arial, Sans-serif">from the Noun Project</text></svg>